#!OML:ASF H:\Dans Jumps\Project 1\Capture day 1\Session 1\subject.ASF
:FULLY-SPECIFIED
:DEGREES
333
root 0.694845 16.1504 -15.6487 26.2118 -0.544025 -2.45462
lowerback 15.847 0.0559631 0.0779305
upperback 7.08373 0.153305 2.62666
thorax -1.37347 0.0325221 2.68551
lowerneck -16.1146 0.769328 -1.26016
upperneck 6.99135 1.56017 -2.38129
head 4.71347 0.568133 -0.407999
rclavicle 8.15017e-015 -7.15625e-015
rhumerus -26.6261 -21.5707 -74.1994
rradius 24.2007
rwrist 34.7063
rhand -17.1812 -25.4083
rfingers 7.12502
rthumb 9.06049 -55.1937
lclavicle 8.15017e-015 -7.15625e-015
lhumerus -23.8894 3.38665 84.5594
lradius 16.6352
lwrist 3.94777
lhand -23.8193 -3.61901
lfingers 7.12502
lthumb 2.6519 26.3443
rfemur -60.1381 -0.896395 21.5153
rtibia 55.3525
rfoot -25.8315 -9.55252
rtoes 1.34044
lfemur -60.3004 7.42823 -20.1881
ltibia 55.4278
lfoot -23.5458 17.686
ltoes -16.0093
334
root 0.688505 16.148 -15.6158 26.2908 -0.444098 -2.45064
lowerback 15.8842 0.0488478 0.0949692
upperback 7.07113 0.148038 2.63744
thorax -1.4061 0.0305037 2.68834
lowerneck -16.1165 0.754408 -1.26572
upperneck 6.93606 1.53812 -2.36468
head 4.69615 0.55908 -0.403893
rclavicle 2.5842e-015 4.77083e-015
rhumerus -26.5392 -21.3657 -74.3387
rradius 24.2804
rwrist 34.535
rhand -17.1743 -25.4238
rfingers 7.12502
rthumb 9.06716 -55.2089
lclavicle 2.5842e-015 4.77083e-015
lhumerus -23.77 3.27014 84.61
lradius 16.7601
lwrist 4.3065
lhand -23.8574 -3.64299
lfingers 7.12502
lthumb 2.6151 26.3207
rfemur -60.1316 -0.845624 21.5115
rtibia 55.4718
rfoot -26.1379 -9.81897
rtoes 1.08253
lfemur -60.2974 7.33978 -20.1201
ltibia 55.516
lfoot -23.7315 17.8387
ltoes -16.0598
335
root 0.681786 16.1463 -15.5808 26.3667 -0.34677 -2.44193
lowerback 15.9129 0.0421777 0.103773
upperback 7.05518 0.142134 2.64704
thorax -1.43777 0.0280563 2.69467
lowerneck -16.1154 0.740628 -1.27147
upperneck 6.89436 1.51797 -2.34842
head 4.6826 0.550751 -0.399688
rclavicle -1.13307e-014 2.0276e-014
rhumerus -26.4394 -21.1385 -74.4886
rradius 24.3642
rwrist 34.3555
rhand -17.1373 -25.4403
rfingers 7.12502
rthumb 9.10289 -55.2239
lclavicle -1.13307e-014 2.0276e-014
lhumerus -23.651 3.18033 84.6505
lradius 16.8767
lwrist 4.66666
lhand -23.9295 -3.69681
lfingers 7.12502
lthumb 2.54548 26.2677
rfemur -60.1081 -0.799708 21.5068
rtibia 55.5812
rfoot -26.455 -10.0742
rtoes 0.80676
lfemur -60.2765 7.26161 -20.0601
ltibia 55.5912
lfoot -23.9199 17.9827
ltoes -16.1389
336
root 0.674665 16.1452 -15.544 26.4442 -0.249265 -2.4308
lowerback 15.9294 0.0351574 0.107429
upperback 7.03405 0.134996 2.65626
thorax -1.46849 0.0249532 2.70366
lowerneck -16.1096 0.7289 -1.27478
upperneck 6.86532 1.50074 -2.33613
head 4.67236 0.543493 -0.396853
rclavicle -2.98177e-015 6.36111e-015
rhumerus -26.3362 -20.8861 -74.6469
rradius 24.4611
rwrist 34.1647
rhand -17.0751 -25.4439
rfingers 7.12502
rthumb 9.16285 -55.2249
lclavicle -2.98177e-015 6.36111e-015
lhumerus -23.5337 3.12726 84.678
lradius 16.9843
lwrist 5.02442
lhand -24.0157 -3.76137
lfingers 7.12502
lthumb 2.46222 26.2042
rfemur -60.0737 -0.758903 21.5042
rtibia 55.6822
rfoot -26.7847 -10.3169
rtoes 0.544025
lfemur -60.2446 7.19117 -20.0043
ltibia 55.6551
lfoot -24.1082 18.121
ltoes -16.215
337
root 0.667296 16.1448 -15.5051 26.5196 -0.149034 -2.41695
lowerback 15.9354 0.0260468 0.107818
upperback 7.0105 0.124638 2.66674
thorax -1.49603 0.0201931 2.71632
lowerneck -16.1124 0.718351 -1.28326
upperneck 6.85765 1.48691 -2.32372
head 4.67014 0.53739 -0.392808
rclavicle -7.95139e-015 1.88845e-014
rhumerus -26.2255 -20.6382 -74.8004
rradius 24.5573
rwrist 33.995
rhand -17.0072 -25.4152
rfingers 7.12502
rthumb 9.22842 -55.1932
lclavicle -7.95139e-015 1.88845e-014
lhumerus -23.4197 3.09766 84.6992
lradius 17.0863
lwrist 5.3705
lhand -24.1251 -3.83353
lfingers 7.12502
lthumb 2.3565 26.1332
rfemur -60.0224 -0.728242 21.5058
rtibia 55.7753
rfoot -27.126 -10.5506
rtoes 0.289497
lfemur -60.1964 7.12534 -19.9513
ltibia 55.7082
lfoot -24.2969 18.2614
ltoes -16.2821
338
root 0.659762 16.1452 -15.4641 26.5902 -0.0456755 -2.40152
lowerback 15.9345 0.0150389 0.109511
upperback 6.98536 0.111921 2.67637
thorax -1.52155 0.014318 2.72769
lowerneck -16.1167 0.706683 -1.29507
upperneck 6.86177 1.47219 -2.30741
head 4.67179 0.530837 -0.387069
rclavicle -5.36719e-015 8.34896e-015
rhumerus -26.1133 -20.4136 -74.9433
rradius 24.6486
rwrist 33.8584
rhand -16.9496 -25.3378
rfingers 7.12502
rthumb 9.284 -55.1134
lclavicle -5.36719e-015 8.34896e-015
lhumerus -23.3108 3.08484 84.7132
lradius 17.1868
lwrist 5.69892
lhand -24.2531 -3.94388
lfingers 7.12502
lthumb 2.2329 26.0242
rfemur -59.9507 -0.707762 21.5123
rtibia 55.8594
rfoot -27.4757 -10.7789
rtoes 0.0595567
lfemur -60.1288 7.06354 -19.8997
ltibia 55.7503
lfoot -24.4848 18.3998
ltoes -16.3272
339
root 0.652139 16.1461 -15.4211 26.6563 0.0553174 -2.3856
lowerback 15.9271 0.00434827 0.109007
upperback 6.96014 0.0991999 2.6861
thorax -1.54372 0.00838219 2.74038
lowerneck -16.132 0.693381 -1.31165
upperneck 6.88172 1.45655 -2.28752
head 4.68007 0.523627 -0.379479
rclavicle 9.14409e-015 2.98177e-015
rhumerus -25.9916 -20.2234 -75.0733
rradius 24.7284
rwrist 33.7541
rhand -16.9018 -25.2452
rfingers 7.12502
rthumb 9.33006 -55.0187
lclavicle 9.14409e-015 2.98177e-015
lhumerus -23.1967 3.09723 84.7204
lradius 17.2748
lwrist 5.99164
lhand -24.3722 -4.03348
lfingers 7.12502
lthumb 2.11793 25.9358
rfemur -59.86 -0.694698 21.5231
rtibia 55.9332
rfoot -27.8282 -10.9998
rtoes -0.1359
lfemur -60.0418 7.00753 -19.8491
ltibia 55.7811
lfoot -24.6664 18.5407
ltoes -16.3628
340
root 0.644604 16.148 -15.3756 26.7082 0.152949 -2.37066
lowerback 15.9233 -0.00610815 0.109797
upperback 6.93571 0.086967 2.69515
thorax -1.56695 0.00271582 2.75157
lowerneck -16.1533 0.67963 -1.32682
upperneck 6.91421 1.4407 -2.26978
head 4.69324 0.515982 -0.372777
rclavicle 7.15625e-015 1.19271e-015
rhumerus -25.8699 -20.0633 -75.1876
rradius 24.7931
rwrist 33.6771
rhand -16.9039 -25.1178
rfingers 7.12502
rthumb 9.32805 -54.8915
lclavicle 7.15625e-015 1.19271e-015
lhumerus -23.0862 3.11922 84.7233
lradius 17.3549
lwrist 6.249
lhand -24.4972 -4.14317
lfingers 7.12502
lthumb 1.9972 25.8272
rfemur -59.736 -0.691139 21.5399
rtibia 55.9946
rfoot -28.1799 -11.2146
rtoes -0.310347
lfemur -59.9211 6.9571 -19.7975
ltibia 55.7985
lfoot -24.838 18.6769
ltoes -16.3983
